<?xml version="1.0" ?><!DOCTYPE svg  PUBLIC '-//W3C//DTD SVG 1.1//EN'  'http://www.w3.org/Graphics/SVG/1.1/DTD/svg11.dtd'><svg enable-background="new 0 0 512 512" height="512px" id="Layer_1" version="1.1" viewBox="0 0 512 512" width="512px" xml:space="preserve" xmlns="http://www.w3.org/2000/svg" xmlns:xlink="http://www.w3.org/1999/xlink"><g><linearGradient gradientUnits="userSpaceOnUse" id="SVGID_1_" x1="43.09" x2="453.375" y1="43.1122" y2="453.3972"><stop offset="0" style="stop-color:#517FA6"/><stop offset="0.4075" style="stop-color:#4F7BA4"/><stop offset="0.7829" style="stop-color:#48709E"/><stop offset="1" style="stop-color:#426699"/></linearGradient><path d="M254.836,306.505c28.226,0.605,51.059-21.95,51.655-49.384   c0.613-28.275-22.204-51.647-50.495-51.631c-27.654-0.016-50.135,22.236-50.52,49.759   C205.076,283.525,227.704,305.924,254.836,306.505z" fill="url(#SVGID_1_)"/><linearGradient gradientUnits="userSpaceOnUse" id="SVGID_2_" x1="26.0369" x2="436.322" y1="60.1652" y2="470.4503"><stop offset="0" style="stop-color:#517FA6"/><stop offset="0.4075" style="stop-color:#4F7BA4"/><stop offset="0.7829" style="stop-color:#48709E"/><stop offset="1" style="stop-color:#426699"/></linearGradient><path d="M332.944,265.26c-1.316,11.138-4.911,21.5-10.755,31.078c-5.843,9.578-13.435,17.529-22.71,23.846   c-24.059,16.393-55.742,17.831-81.279,3.498c-12.904-7.232-23.037-17.325-30.114-30.343c-10.534-19.392-12.217-39.757-6.039-60.89   c-7.911,0-15.772,0-23.74,0v0.67c0,36.897-0.008,73.794,0,110.69c0,5.304,4.593,9.872,9.904,9.872   c58.512,0.008,117.016,0.008,175.528,0c5.361,0,9.929-4.552,9.929-9.904c0.008-36.848,0-73.712,0-110.551v-0.768h-23.797   C333.23,243.196,334.26,254.122,332.944,265.26z" fill="url(#SVGID_2_)"/><linearGradient gradientUnits="userSpaceOnUse" id="SVGID_3_" x1="122.2536" x2="532.5386" y1="-36.0514" y2="374.2336"><stop offset="0" style="stop-color:#517FA6"/><stop offset="0.4075" style="stop-color:#4F7BA4"/><stop offset="0.7829" style="stop-color:#48709E"/><stop offset="1" style="stop-color:#426699"/></linearGradient><path d="M310.52,188.647c1.414,4.151,5.222,6.701,9.88,6.726c3.784,0,7.575-0.008,11.359-0.008v-0.049   c4.102,0,8.213,0.082,12.324-0.016c5.279-0.131,9.577-4.658,9.577-9.945c0-7.87,0-15.747,0-23.617   c0-5.647-4.47-10.133-10.101-10.142c-7.853,0-15.707-0.008-23.56,0c-5.623,0.008-10.101,4.511-10.101,10.158   c-0.008,7.804-0.033,15.609,0.025,23.413C309.931,186.335,310.152,187.544,310.52,188.647z" fill="url(#SVGID_3_)"/><linearGradient gradientUnits="userSpaceOnUse" id="SVGID_4_" x1="43.1011" x2="453.3861" y1="43.1011" y2="453.3861"><stop offset="0" style="stop-color:#517FA6"/><stop offset="0.4075" style="stop-color:#4F7BA4"/><stop offset="0.7829" style="stop-color:#48709E"/><stop offset="1" style="stop-color:#426699"/></linearGradient><path d="M256,7.098C118.535,7.098,7.098,118.535,7.098,256S118.535,504.902,256,504.902   c137.465,0,248.902-111.437,248.902-248.902S393.465,7.098,256,7.098z M380.661,355.766c-0.18,1.111-0.343,2.223-0.548,3.342   c-1.994,10.24-10.313,18.73-20.495,20.896c-1.283,0.278-2.582,0.466-3.882,0.678H156.264c-0.531-0.073-1.07-0.18-1.594-0.245   c-10.975-1.414-20.193-9.79-22.637-20.593c-0.286-1.259-0.466-2.542-0.695-3.8V156.008c0.074-0.466,0.172-0.932,0.237-1.397   c1.577-11.196,9.749-20.087,20.798-22.604c1.185-0.27,2.403-0.433,3.604-0.654h200.044c0.466,0.082,0.915,0.188,1.389,0.245   c11.31,1.553,20.528,10.223,22.718,21.394c0.204,1.087,0.36,2.19,0.531,3.277V355.766z" fill="url(#SVGID_4_)"/></g></svg>