<svg width="58" height="58" viewBox="0 0 58 58" fill="none" xmlns="http://www.w3.org/2000/svg">
<g filter="url(#filter0_d)">
<circle cx="29" cy="25" r="25" fill="#021146"/>
<path d="M21.275 23.4875C23.075 27.025 25.975 29.9125 29.5125 31.725L32.2625 28.975C32.6 28.6375 33.1 28.525 33.5375 28.675C34.9375 29.1375 36.45 29.3875 38 29.3875C38.6875 29.3875 39.25 29.95 39.25 30.6375V35C39.25 35.6875 38.6875 36.25 38 36.25C26.2625 36.25 16.75 26.7375 16.75 15C16.75 14.3125 17.3125 13.75 18 13.75H22.375C23.0625 13.75 23.625 14.3125 23.625 15C23.625 16.5625 23.875 18.0625 24.3375 19.4625C24.475 19.9 24.375 20.3875 24.025 20.7375L21.275 23.4875Z" fill="#00DE73"/>
</g>
<defs>
<filter id="filter0_d" x="0" y="0" width="58" height="58" filterUnits="userSpaceOnUse" color-interpolation-filters="sRGB">
<feFlood flood-opacity="0" result="BackgroundImageFix"/>
<feColorMatrix in="SourceAlpha" type="matrix" values="0 0 0 0 0 0 0 0 0 0 0 0 0 0 0 0 0 0 127 0" result="hardAlpha"/>
<feOffset dy="4"/>
<feGaussianBlur stdDeviation="2"/>
<feComposite in2="hardAlpha" operator="out"/>
<feColorMatrix type="matrix" values="0 0 0 0 0 0 0 0 0 0 0 0 0 0 0 0 0 0 0.25 0"/>
<feBlend mode="normal" in2="BackgroundImageFix" result="effect1_dropShadow"/>
<feBlend mode="normal" in="SourceGraphic" in2="effect1_dropShadow" result="shape"/>
</filter>
</defs>
</svg>
